<svg width="512" height="512" viewBox="0 0 512 512" fill="none" xmlns="http://www.w3.org/2000/svg">
<rect width="512" height="512" fill="white"/>
<path d="M109.995 299.804L144.471 358.656H215.767L173.257 290.107C195.014 278.738 208.403 257.338 208.403 228.246C208.403 180.763 176.27 153.344 131.082 153.344H31V358.656H94.9321V299.804H109.995ZM94.9321 207.18H122.379C139.116 207.18 145.475 215.539 145.475 228.246C145.475 240.618 139.116 248.978 122.379 248.978H94.9321V207.18Z" fill="black"/>
<path d="M354.999 292.782C349.643 301.142 339.602 305.489 325.209 305.489C300.774 305.489 285.711 286.429 285.711 256C285.711 227.577 299.1 206.511 325.209 206.511C339.602 206.511 349.309 213.199 353.325 224.902H419.935C412.571 182.435 381.107 150 325.209 150C262.95 150 220.44 193.804 220.44 256C220.44 318.196 262.95 362 325.209 362C382.446 362 420.27 326.555 420.27 269.71V246.972H330.899V292.782H354.999Z" fill="black"/>
<path d="M425.704 324.883C425.704 345.281 441.436 360.997 461.185 360.997C481.268 360.997 497 345.281 497 324.883C497 304.151 481.268 288.77 461.185 288.77C441.436 288.77 425.704 304.151 425.704 324.883Z" fill="black"/>
</svg>
